<?xml version="1.0" encoding="utf-8"?><!-- Uploaded to: SVG Repo, www.svgrepo.com, Generator: SVG Repo Mixer Tools -->
<svg version="1.1" id="Uploaded to svgrepo.com" xmlns="http://www.w3.org/2000/svg" xmlns:xlink="http://www.w3.org/1999/xlink" 
	 width="800px" height="800px" viewBox="0 0 32 32" xml:space="preserve">
<style type="text/css">
	.linesandangles_een{fill:#111918;}
</style>
<path class="linesandangles_een" d="M17,4l-2,12l-6.073,1.104C6.074,17.623,4,20.108,4,23.007V28h14l2-2v2h8V4H17z M17.172,26
	H6v-1h12.172L17.172,26z M26,26h-4v-1h4V26z M26,23H6.001c0.004-1.931,1.383-3.582,3.284-3.928L15.18,18H21v-2h-3.972l0.333-2H21v-2
	h-3.306l0.333-2H21V8h-2.639l0.333-2H26V23z"/>
</svg>